<svg xmlns="http://www.w3.org/2000/svg" width="2048" height="1239.633"><title>Chapéu de Formatura</title><defs><mask maskUnits="userSpaceOnUse"><path fill="#fff" d="M487.4 256a231.4 231.4 0 1 1-462.8 0 231.4 231.4 0 1 1 462.8 0z"/></mask><clipPath><path fill="#ff3232" d="M0 0v1024h1024V0H0zm278.44 333.84h119.78c9.84 42.32 19.86 84.6 29.94 126.85 9.87-42.3 20.05-84.5 29.68-126.86h108.9c9.65 42.35 19.83 84.56 29.7 126.85 10.08-42.27 20.1-84.54 29.93-126.86h119.2c-26.27 110.73-52.5 221.47-78.3 332.32h-122.8C533.87 620.6 523 575.1 512.1 529.63c-10.67 45.5-21.57 90.96-32 136.53H357.27c-25.7-110.04-52.03-219.93-78.25-329.85l-.6-2.46z"/></clipPath><clipPath><path fill="#ff3232" d="M0 0v1024h1024V0H0zm278.44 333.84h119.78c9.84 42.32 19.86 84.6 29.94 126.85 9.87-42.3 20.05-84.5 29.68-126.86h108.9c9.65 42.35 19.83 84.56 29.7 126.85 10.08-42.27 20.1-84.54 29.93-126.86h119.2c-26.27 110.73-52.5 221.47-78.3 332.32h-122.8C533.87 620.6 523 575.1 512.1 529.63c-10.67 45.5-21.57 90.96-32 136.53H357.27c-25.7-110.04-52.03-219.93-78.25-329.85l-.6-2.46z"/></clipPath><mask maskUnits="userSpaceOnUse"><path fill="#fff" d="M487.4 256a231.4 231.4 0 1 1-462.8 0 231.4 231.4 0 1 1 462.8 0z"/></mask><mask maskUnits="userSpaceOnUse"><path fill="#fff" d="M487.4 256a231.4 231.4 0 1 1-462.8 0 231.4 231.4 0 1 1 462.8 0z"/></mask><clipPath><path fill="#fff" d="M487.4 256a231.4 231.4 0 1 1-462.8 0 231.4 231.4 0 1 1 462.8 0z"/></clipPath><clipPath><path fill="#fff" d="M487.4 256a231.4 231.4 0 1 1-462.8 0 231.4 231.4 0 1 1 462.8 0z"/></clipPath><mask maskUnits="userSpaceOnUse"><path fill="#fff" d="M487.4 256a231.4 231.4 0 1 1-462.8 0 231.4 231.4 0 1 1 462.8 0z"/></mask><clipPath><path fill="#fff" d="M487.4 256a231.4 231.4 0 1 1-462.8 0 231.4 231.4 0 1 1 462.8 0z"/></clipPath><mask maskUnits="userSpaceOnUse"><path fill="#fff" d="M487.4 256a231.4 231.4 0 1 1-462.8 0 231.4 231.4 0 1 1 462.8 0z"/></mask><clipPath><path fill="#ff3232" d="M0 0v1024h1024V0H0zm278.44 333.84h119.78c9.84 42.32 19.86 84.6 29.94 126.85 9.87-42.3 20.05-84.5 29.68-126.86h108.9c9.65 42.35 19.83 84.56 29.7 126.85 10.08-42.27 20.1-84.54 29.93-126.86h119.2c-26.27 110.73-52.5 221.47-78.3 332.32h-122.8C533.87 620.6 523 575.1 512.1 529.63c-10.67 45.5-21.57 90.96-32 136.53H357.27c-25.7-110.04-52.03-219.93-78.25-329.85l-.6-2.46z"/></clipPath><clipPath><path fill="#ff3232" d="M0 0v1024h1024V0H0zm278.44 333.84h119.78c9.84 42.32 19.86 84.6 29.94 126.85 9.87-42.3 20.05-84.5 29.68-126.86h108.9c9.65 42.35 19.83 84.56 29.7 126.85 10.08-42.27 20.1-84.54 29.93-126.86h119.2c-26.27 110.73-52.5 221.47-78.3 332.32h-122.8C533.87 620.6 523 575.1 512.1 529.63c-10.67 45.5-21.57 90.96-32 136.53H357.27c-25.7-110.04-52.03-219.93-78.25-329.85l-.6-2.46z"/></clipPath><mask maskUnits="userSpaceOnUse"><path fill="#fff" d="M487.4 256a231.4 231.4 0 1 1-462.8 0 231.4 231.4 0 1 1 462.8 0z"/></mask><mask maskUnits="userSpaceOnUse"><path fill="#fff" d="M487.4 256a231.4 231.4 0 1 1-462.8 0 231.4 231.4 0 1 1 462.8 0z"/></mask><clipPath><path fill="#fff" d="M487.4 256a231.4 231.4 0 1 1-462.8 0 231.4 231.4 0 1 1 462.8 0z"/></clipPath><clipPath><path fill="#fff" d="M487.4 256a231.4 231.4 0 1 1-462.8 0 231.4 231.4 0 1 1 462.8 0z"/></clipPath><mask maskUnits="userSpaceOnUse"><path fill="#fff" d="M487.4 256a231.4 231.4 0 1 1-462.8 0 231.4 231.4 0 1 1 462.8 0z"/></mask><clipPath><path fill="#fff" d="M487.4 256a231.4 231.4 0 1 1-462.8 0 231.4 231.4 0 1 1 462.8 0z"/></clipPath></defs><g><g><path fill="#313131" d="M1011.95.7L.05 411.32 522.78 672.7v-.02l494.03 247.03 487.76-245.04v.03l543.68-273.16zm492.64 698.84l-487.77 245.04L522.8 697.55l-37.8 354.8c383.26 274.4 729 226.14 1054.06 0z"/><g><path fill="#fff" stroke="#313131" stroke-width="7.418" d="M9.4 399.53c-10 .7-23.12 4.8-24.77 16.25C-15 425.72-3.24 428.8 5 428.5c10.18-.97 14.67-1.24 19.73.4 50.2 14.24 150.65 42.73 150.65 42.73l3.78 51.6s2.66 45.32-4.14 97.12c12.14 2.72 19.1 1.6 27.62-7.77-2.04-29.45-9.53-92.4-9.53-92.4l2.9-60.93S85.6 427.6 31.1 410.8c-1.64-9.65-13.6-11.85-21.7-11.27z" stroke-linecap="round" stroke-linejoin="round" transform="matrix(-3.361 0 0 2.993 1007.235 -824.542)"/><path fill="#313131" d="M370.46 778.85c-23.1-4.97-38.57-22.55-38.57-40.14 0-17.6 15.46-33.9 38.56-37 29.18-3.88 59.16 14 59.16 41 0 26.98-29.98 42.42-59.16 36.15"/></g></g></g></svg>