<svg xmlns="http://www.w3.org/2000/svg" width="480" height="657"><path fill="#252525" fill-rule="evenodd" d="M181.95 321.5c1.15 2.92 3.98 9.98 3.98 17.02 0 8.04-1.58 11.16-.58 11.6 1.36.6 5.73-12.02 5.73-9.62 0 4.04-1.9 12.5-6.18 21.89-4.28 9.38-7.35 14.17-12.8 19.66-5.47 5.5-7.69 7.71-11.93 10.62-4.24 2.91-5.55 3.35-11.1 6.72-5.55 3.36-10.98 6.25-14.7 8.9-3.7 2.67-6.83 4.56-12.98 11.64-6.14 7.07-9.33 12.94-11.38 16.42-2.06 3.48-4.76 8.16-7.43 18.48s-3.75 14.57-2.36 19.38c2.87-.35 10.45-5.8 16.65-7.32.25 1.13-2.06 5.6-2.53 11.89-.47 6.28-.46 14.53 0 21.82.47 7.3.7 12.24 3.6 21.76 2.89 9.52 3.81 11.09 8.83 19.14 5.03 8.05 13.07 20.5 15.13 19.28 1.33-4.2-8.9-29.65-10.09-35.17-1.19-5.52-3.97-14.04-3.62-27.71.35-13.68 1.62-15.47 5.08-29.02 3.46-13.56 3.97-17.9 10.29-31.22 6.31-13.32 12.71-20.75 16.61-25.52 3.9-4.77 9.53-7.64 18.27-18.06 8.75-10.41 8.87-11.85 17.47-24.5 8.6-12.64 10.46-10.83 17.73-27.26 7.26-16.43 9.27-27.57 7.75-30.4-1.05-1.46-6.73 10.2-13.84 19.13-7.1 8.94-8.9 11.74-12.94 14.58-1.19-2.72-1.44-8.53-4.24-14.58-2.52-5.44-7.98-13.35-8.57-14.24-.38-.57-.67-1.1-.76-1.2-.8-1.77-2.19-3.4-4.04-6.54-2.27-3.83-5.02-6.56-8.8-14.73-3.77-8.17-5.39-12.54-6.48-18.36-1.1-5.82-3.14-15.42 0-19.1 4 0 12.34 3.03 15.28 3.68 2.93.66 9.52 2.32 16.6-1.48 7.08-3.8 8.04-8.46 10.36-13 2.32-4.55 13.7-17.71 16.72-21.98-2.8-2.31-17.86 4.2-26.01 7.7-8.15 3.5-9.42 5.63-12.46 7.17-1.85-1.87.51-10.1 4.02-15.73 3.5-5.63 6.72-7.64 14.01-13.25 7.3-5.6 13.82-10.98 22.28-14.6-3.94-1.8-25.76.92-31.03 0-5.26-.93-10.01-2.25-13.42-6.76-3.4-4.51-4.32-7.14-4.55-15.04-.22-7.89 2.2-18.34 3.48-22.73 1.28-4.39 3.42-7 7.55-12.57 4.13-5.56 4.7-6.74 10.12-11.22 5.41-4.48 12.18-7.45 16.95-11.2.2-.53-3.42-1.1-6.64 0-3.23 1.1-6.65 4.12-13.49 6.86s-13.42 5.13-14.5 4.34c1.08-3.2 6.82-9.44 14.5-16.02 7.68-6.59 11.28-7 14.45-8.8-1.68-1.19-7.17.02-14.45 1.05-7.27 1.02-12.93 2.04-16.56 3.25-3.63 1.2-5.44 1.62-10.35 5.27-4.9 3.66-6.82 5.87-9.88 9.8-.37-2.02.5-4.77 2.01-8.4 1.52-3.65 4.5-5.56 4.5-7.3-2.5-.75-7.75 1.5-11.45 2.67-3.7 1.17-6.2 1.55-11.9 5.35-5.68 3.79-8.55 7.25-11.87 10.5-3.32 3.26-6.05 5.59-10.08 13.85a55.52 55.52 0 00-5.35 17.84c-.23 2.36-.55 5.2.83 8.84 1.38 3.64 3.98 7.2 7.95 14.4 3.98 7.22 3.68 10.94 7.47 13.59 1.36-.7 3.51-4.8 7.04-7.94 3.53-3.15 12.48-8.56 14.92-11.43 2.44-2.87 3.65-6.12 3.89-12.69.23-6.57-3.89-15.09-2.9-14.76 1.32.44 7.78 11.71 7.52 16.3-.27 4.58-.13 7.53-2.58 11.15-2.45 3.63-8.25 8.61-12.18 11.43-3.93 2.8-4.61 3.33-6.67 5.15-2.3 2.03-4.11 4.41-6.43 6.38-6.6 5.6-6 4.74-11.93 9.71-5.94 4.97-4.77 5.02-9.74 8.44-4.96 3.41-12.37 7.11-14.93 8.54-2.56 1.43-4.35 2.85-7.7 7.33-3.34 4.48-4.9 8.5-10.11 15.93-5.22 7.44-4.88 6.92-10 13.31-5.1 6.4-6.03 7.35-12.18 14.44-6.14 7.09-4.54 5.6-9.04 10.06-4.5 4.46-6.9 5.31-13.5 11.48-6.6 6.17-8.4 8.82-11.33 11.83-2.93 3.01-4.27 4.01-7.82 9.33-3.55 5.33-4.8 8.98-5.17 10.15-.36 1.18-.6 2.89.23 3.95.84 1.07 1.92.97 3.8.42s3.95-1.93 8.48-3.15c4.53-1.23 5.41-1.6 10.81-1.6s6.97.19 8.52 1.6c-1.3 1.19-4.33 1.48-8.52 3.74-4.18 2.26-5.32 3.36-7.64 5-2.31 1.62-4.61 3.3-7.02 9.08-2.4 5.78-2.1 8.27-2.1 12.85s-.02 7.06 2.1 11.4c2.13 4.32 3.78 6.58 8.3 11.07 4.54 4.48 5.32 4.4 10.84 7.88 5.52 3.47 6.13 4.12 12.5 6.8 6.36 2.67 14.83 6.35 18.75 6.35s8.5.52 15.13-.34c6.62-.86 13.33-3.15 16.04-3.15.44.48-3.67 3.37-7.64 4.77-3.96 1.4-8 1.98-12.85 2.44-4.85.46-7.14 1.05-14.18 0-7.05-1.05-9.83-2-19.55-5.02-9.72-3.01-11.05-5.06-16.78-6.24-2.51.5-1.85 4.8-1.93 10.05-.07 5.25-.2 5.87 1.32 10.7 1.53 4.81 5.12 13.58 8.67 21.01 1.36 1.8 2.3-5.83 3.67-4.36 3.17 4.31 2.53 10.08 7.47 16.51 4.94 6.43 11.45 11.54 17.13 15.28 2.26-1.89 3.34-6.9 6.23-14.3 2.9-7.39 4.69-15.7 7.26-20.14.69 1.05 1.39 5.16 1.75 10.43.37 5.26-.9 10.92.82 10.16 2.74-2.3 4.3-9.94 10.28-15.12 5.98-5.18 14.78-9.45 29.63-19.48 14.84-10.02 14.1-9.47 27.85-20.22 13.74-10.76 18.24-12.73 24.28-20.58 6.04-7.86 7.82-10.45 10.58-23.97 2.04-10 2.11-22.6 1.75-29.41zM144.67 8.55a.4.4 0 01.69-.34l.02.03 31.44 44a.68.68 0 001.2-.2l6.65-22.86a.68.68 0 011.22-.18l13.17 19.74a.68.68 0 001.19-.12L219.7.63a.68.68 0 011.26 0l19.18 47.98a.68.68 0 001.19.12l13.3-19.76a.68.68 0 011.2.19l6.73 22.88a.68.68 0 001.2.2L294.29 9.7a.68.68 0 011.2.57c-8.91 32.6-13.62 50.98-14.12 55.14-.49 4.09-.51 12.57-.07 25.44a2.03 2.03 0 01-2.03 2.1H161.04a2.03 2.03 0 01-2.03-2.1c.44-13.02.42-21.5-.07-25.44-.51-4.1-5.13-22.5-14.27-56.87zm113.8 68.5a5.75 5.75 0 100-11.5 5.75 5.75 0 000 11.5zm-37.91 0a5.75 5.75 0 100-11.5 5.75 5.75 0 000 11.5zm-37.91 0a5.75 5.75 0 100-11.5 5.75 5.75 0 000 11.5zm-60.53 119.88c-5.96-13.47-17.75-23.09-19.27-43.52-1.33-15.54 5.63-25.06 19.27-37.05 13.64-12 31.94-13.24 44.46-14.54 12.53-1.3 10.57-1.6 23.15-4.15 12.58-2.53 26.87-1.25 42.63-1.25 15.76 0 32.68 4.27 47.77 8.5 15.1 4.23 48.88 18.57 57.26 28.32 0 1.26-15.4-3.02-21.49-3.4-6.08-.38-13.65-.28-12.2 1.3 2.86 2.53 12.2 5.85 20.03 7.3 7.82 1.46 27.78 3.74 49.66 14.97 14.74 8.23 20.36 15.16 28.33 23.88 7.97 8.71 18.04 25.35 18.04 30.83-3.23.4-24.05-.21-23.01 1.95 12.55 4.57 23.66 12.7 38.72 26.63 15.06 13.92 17.86 19 26.27 33.46 8.41 14.45 12.65 30.54 15.82 46.55 3.17 16.01 1.36 22.7 0 33.46-1.36 10.76-9.43 35.25-10.41 34.9-1.43-1.35-.67-27.72-5.4-41.04-4.74-13.32-14.66-19.8-25.17-29.06-10.51-9.28-23.18-15.63-23.75-14.1 2.45 3.44 14.95 13.1 23.75 26.1 8.8 13.02 9.75 14.38 13.85 29.44s3.35 21.78 2.9 32.08c-.44 10.3-1.6 19.79-8.75 36.45-7.15 16.67-9.64 22.63-21.15 35.6-7.68 8.66-19.44 18.86-35.3 30.63-14.47 9.98-26.68 19.53-36.62 28.65-14.92 13.68-22 22.13-27.78 30.4-2.87 4.1-9.96 16.23-15.95 28.85-6 12.62-11.07 26.15-13.29 29.5-2.07-4.77-.24-39.93-2.63-49.12-4-1.52-11.72 8.34-18.45 20.66-6.72 12.32-6.74 17.47-8.37 28.46-1.63 11-.11 19.26.56 28.99.67 9.73 5.65 20.87 2.74 19-5.8-3.73-12.8-15.92-20.15-30.2-7.35-14.3-8.06-17.8-11.31-30.95-3.26-13.16-4.06-17.42-3.03-35.96 1.03-18.54 7-26.98 13.04-35.42 6.05-8.45 9.9-12.23 21.45-25.35 11.55-13.12 14.47-14.46 23.52-25.74 9.05-11.27 8.32-10.67 16.57-24.22 8.25-13.55 10.67-18.08 15.3-28.1 4.62-10.04 9-22.7 7.42-21.18-2.34 2.27-5.6 13.83-15.25 28.77-9.64 14.94-9.19 14.3-21.41 28.01s-8.73 10.3-26.15 25.34c-17.42 15.03-27.56 20.43-35.98 28.29-8.43 7.86-10.45 12.02-15.76 23.59-5.3 11.56-5.85 19.3-6.67 24.98-.8 5.67.02 16.34.43 21.7.42 5.34 2.5 17.37 6.24 33.22 3.75 15.84 10.85 29.56 9.01 31.19-2.35 1.4-14.07-4.97-27.88-16.33-13.81-11.35-14.68-12.98-25-27.15-10.31-14.18-12.69-24.99-17.22-31.07-3.27 1.62-2.93 9.68-4.06 9.09-10.75-7.15-16.1-12.03-25.32-24.95-9.2-12.9-9.19-14.54-13.94-30.1-4.76-15.54-3.18-24.18-5.66-33.24-3.68-.42-12.55 8.32-13.42 6.8-.86-9.64.99-34.02 2.18-43.4 1.2-9.37 7.56-15.89 5.66-17.94-1.98-1.67-5.59.27-13.5 11.33-7.92 11.05-9.66 23.38-12.79 25.37-.77-.88-.08-5.03-.35-12.2-.09-2.4-.43-8.46-1.4-8.1-2.5.87-3.05 2.4-6.64 10.9-3.6 8.52-3.55 16.53-5.51 17.12-3.6-5.98-11.92-15.46-16.41-22.57-4.5-7.1-5.27-12.12-7.98-15.27-1.21-.5-2.76 5.9-3.92 5.9-2.32-4.2-3.12-11.18-5.46-17.76-2.34-6.57-3.75-5.73-5.4-12.78-1.66-7.06-1.08-11-1.08-14.84 0-3.83 1.03-13.87 0-18.27-2.35-3.6-7.27-8.11-8.97-11.71-1.7-3.6-1.67-9.24-2.9-12.43-1.21-3.2-6.65-9.95-7.7-13.34-.6-10.2-.44-16.58 0-20.61 1.9-7.18 11.01-16.74 15.29-21.8 4.28-5.07 5.62-4.59 17.78-16.62 12.16-12.02 13.07-11.87 23.91-24.62 10.84-12.75 16.2-21.54 20.19-27.24 4-5.71 6.03-9.27 8.16-11.5 5.24-5.93 5.98-6.08 16.58-12.48 10.7-6.63 17.17-12.25 19.27-15.79zm140.44-11.77c3.92-.54 9.15-4.52 15.16-6.6 6-2.07 24.31-7.46 39.64-6.41 35.65 2.45 63.93 19.8 68.63 20.68-4.91-9.5-16.67-15.68-25.2-20.68-8.52-5-29.22-11.03-40.51-11.8-27.05-1.87-58.12 20.8-57.72 24.8zm-6.23 61.9c2.27.57 8.91 1.57 11.36 2.45 2.45.88 5.7 2.47 8.96 3.33 3.75-2.75 9.56-8.16 13.47-11.39 3.92-3.22 13.66-11.13 15.24-13.63-.8-2.72-12.87-.64-26.64 4.76-13.76 5.4-17.55 8.53-22.39 14.48zm-71.75-69.84c.35 3.08 6.72-11 8.49-11.55.52 2.52-1.55 15.56.83 18.27 1.47 1.67 2.7-5.44 7.33-9.5 4.63-4.05 11.26-7.8 15.6-9.8 4.36-2 8.06-4.9 16.96-6.5 8.9-1.6 16.04 0 19.3 0 1.55-1.18-5.3-4.75-11.82-5.7-6.51-.94-9.86-.75-16.17 0-6.32.77-8.31 1.33-13.35 3.82-5.04 2.5-9.46 8.38-11.98 9.41-2.03-1.42 3.24-12.8 4.26-14.82a30 30 0 017.72-9.78c4.8-4.17 15.5-11.32 18.53-12.95 3.02-1.64 6.5-3.83 15.29-5.51 8.8-1.69 15.58-.5 16.95-1.81 2.07-1.99-16.24-2.68-21.82-2.68-5.58 0-17-.79-28.95 5.52s-14.9 8.73-21.05 20.88c-6.15 12.14-6.96 25.2-6.12 32.7zM282 198.19c.77 1.63 9.61 1.06 15.57 3.72 4.04 1.8 9.39 3.87 13.22 12.02 3.84 8.15 5.05 12.36 4.43 20.2-.63 7.85-1.72 9.65-5.17 14.4-3.45 4.76-8.22 9.85-17 16.17-8.78 6.33-20.75 11.46-25.19 14.23 4.49 2.69 12.36 4.17 24.07 12.54 11.72 8.37 10.3 7.62 19.75 18.78 9.44 11.16 17.76 25.65 21.66 30.15 1.42.58.58-13.15-5-24.37-5.59-11.22-10.8-17.4-19.34-24.56-8.54-7.15-17.39-9.94-22.5-12.54 3.18-2.89 13.8-4.34 17.1-6.12 3.3-1.78 14.08-8.31 19.96-17.2 5.87-8.87 7.5-17.1 7.5-19.28 0-2.2.2-7.2-1.62-11.1-1.83-3.9-5.61-12.97-12.55-19.14-6.95-6.17-9.47-6.83-19.14-9.02-9.66-2.19-15.13.23-15.75 1.12zm-113.12 64.96c-.98 1.28 6.87 13.44 9.52 16.81 2.66 3.38 7.38 6.87 10.69 11.56 5.36 8.89 5.54 8.07 8.02 19.46 2.49 11.38 1.11 19.49 1.36 23.57 1.6-.31 4.67-7.23 5.88-16.49 1.21-9.25-3.86-22.09-9.22-29.23 1-1.56 6.9 3.68 15.63 2.7 8.73-1 9.77-2.44 17.03-6.39 7.26-3.94 14.58-9.63 13.28-10.1-5.28.89-18.32 6.48-26.71 8-8.4 1.53-11.5 1.2-17.25-.75-5.73-1.95-7.74-2.14-14.97-7.24-7.24-5.1-12.37-13.08-13.26-11.9zm73.6 174.03c3.64.8 27.1-19.66 34.94-36.87 7.84-17.21 8.62-42.45 6.98-50.56-1.64-8.1-.66-13.14-13.63-30.93-12.97-17.8-27.35-26.38-27.35-25.27 0 2.13 8.95 11 16.28 20.69 7.32 9.68 9.55 15.42 11.07 19.17 3.54 8.77 3.25 14.1 1.68 31.95-1.58 17.86-3.73 23.83-7.35 32.25-1.64 3.82-5.62 13.07-10.67 21.05-5.05 7.97-13.15 17.83-11.95 18.52zm3.74-62.7c-.4-1.67-5.79 11.8-12.59 20.07-6.8 8.26-8.45 8.78-17.19 16.11-8.73 7.33-14.16 9.7-27.85 21.69-13.7 11.99-18.24 15.11-22.31 22.25-4.07 7.13-7.14 11.27-12.1 25.8-4.96 14.53-5.44 15.16-7.85 32.65-2.4 17.49-2.01 15.91-.88 30.77 1.14 14.86 1.48 18.83 4.15 23.56.76.82 2.71-3.88 3.84-9.42s1.18-11.83 1.77-14.14c.99 3.21 5.09 12.68 11.07 23.09 5.98 10.4 13.06 23.17 13.35 19.41.38-4.92-9.76-23.26-12.01-36.76-2.25-13.5-3.42-19.37-3.42-28.84 0-6.32 1.14-13.77 3.42-22.35 6.63-19.55 13.22-34.14 19.77-43.77 9.83-14.45 11.52-16.45 23.76-30.02 12.24-13.56 17.27-15.2 24.15-23.1 6.9-7.9 11.35-25.2 10.92-27zM87.28 291.3c.05-.6 7.53-7.87 13.27-16.2 5.75-8.34 6.69-14.45 9.16-16.3.81.46-1.24 2.86 0 5.15 1.25 2.28 10.95 3 17.15 2 6.19-1 20-6.14 20.59-5.46.72.72-9.3 8.35-13.75 11.48-4.45 3.13-8.27 6.27-15.38 6.27-7.1 0-11.17-6.53-11.73-6.27-.7.49-2.06 5.67-6.9 10.53-4.84 4.86-12.41 9.66-12.41 8.8zm-5.61 44.07c1.4-2.7 12.8-3.51 22.2-7.43 9.42-3.92 16.96-9.88 18.42-9.48 1.15.32-7.1 6.98-13.2 10.93a49.84 49.84 0 01-12.91 5.98c4.56 7.57 7.27 14.14 8.1 19.7 1.25 8.36-6.63 14.59-8.1 15.87-.97.84 3.22-8.97 3.22-11.63s.3-6.04-4.83-13.03c-5.12-6.99-13.36-9.99-12.9-10.91z"/></svg>